<?xml version="1.0" encoding="UTF-8" standalone="no"?>
<svg
   xmlns:dc="http://purl.org/dc/elements/1.1/"
   xmlns:cc="http://creativecommons.org/ns#"
   xmlns:rdf="http://www.w3.org/1999/02/22-rdf-syntax-ns#"
   xmlns:svg="http://www.w3.org/2000/svg"
   xmlns="http://www.w3.org/2000/svg"
   id="svg4000"
   version="1.1"
   viewBox="0 0 111.125 64.822916"
   width="420"
   height="245">
  <defs
     id="defs4004" />
  <metadata
     id="metadata3998">
    <rdf:RDF>
      <cc:Work
         rdf:about="">
        <dc:format>image/svg+xml</dc:format>
        <dc:type
           rdf:resource="http://purl.org/dc/dcmitype/StillImage" />
        <dc:title></dc:title>
      </cc:Work>
    </rdf:RDF>
  </metadata>
  <path
     style="color:#000000;font-style:normal;font-variant:normal;font-weight:normal;font-stretch:normal;font-size:medium;line-height:normal;font-family:sans-serif;font-variant-ligatures:normal;font-variant-position:normal;font-variant-caps:normal;font-variant-numeric:normal;font-variant-alternates:normal;font-feature-settings:normal;text-indent:0;text-align:start;text-decoration:none;text-decoration-line:none;text-decoration-style:solid;text-decoration-color:#000000;letter-spacing:normal;word-spacing:normal;text-transform:none;writing-mode:lr-tb;direction:ltr;text-orientation:mixed;dominant-baseline:auto;baseline-shift:baseline;text-anchor:start;white-space:normal;shape-padding:0;clip-rule:nonzero;display:inline;overflow:visible;visibility:visible;opacity:1;isolation:auto;mix-blend-mode:normal;color-interpolation:sRGB;color-interpolation-filters:linearRGB;solid-color:#000000;solid-opacity:1;vector-effect:none;fill:#be1527;fill-opacity:1;fill-rule:nonzero;stroke:none;stroke-width:6.33313704;stroke-linecap:butt;stroke-linejoin:miter;stroke-miterlimit:10;stroke-dasharray:none;stroke-dashoffset:0;stroke-opacity:1;color-rendering:auto;image-rendering:auto;shape-rendering:auto;text-rendering:auto;enable-background:accumulate"
     d="m 54.957366,2.6460426 c -11.17351,0 -20.966275,5.9849592 -26.238704,14.8599674 h 7.66826 c 4.395114,-5.21097 11.061724,-8.5324063 18.570444,-8.5324063 7.51726,0 14.18994,3.3297873 18.58543,8.5509873 l 0.21705,0.007 h 0.42477 l 0.43874,0.02627 0.45165,0.01289 0.45164,0.02577 0.46509,0.03926 0.47854,0.03876 0.478,0.03926 0.47852,0.05165 0.47801,0.06503 0.47852,0.06503 0.46509,0.07792 0.46509,0.09141 0.46509,0.09091 0.45165,0.103775 0.42529,0.117171 0.42531,0.116661 0.39842,0.142995 0.39894,0.143025 0.0491,0.01908 C 76.865906,9.2131603 66.666696,2.6458328 54.957366,2.6458328 Z m 5.2e-4,16.0297684 c -2.4731,0 -4.47777,1.960668 -4.47777,4.379251 0,1.736076 1.03555,3.231956 2.53319,3.940456 l -2.53319,18.581032 h 8.96897 l -2.5337,-18.587216 c 1.49056,-0.711007 2.52026,-2.203201 2.52026,-3.934272 0,-2.418583 -2.00487,-4.379251 -4.47776,-4.379251 z M 2.6458314,19.260717 V 45.57655 h 5.38158 V 34.465528 H 21.181652 v -4.09378 H 8.0274114 v -7.01777 H 21.779552 v -4.093261 z m 23.9168906,0 V 45.57655 H 45.696956 V 41.482769 H 31.944301 v -7.017241 h 13.154235 v -4.09378 H 31.944301 v -7.01777 h 13.752655 v -4.093261 z m 37.670044,0 v 26.316342 h 9.27438 l 0.33176,-0.01339 h 0.34571 l 0.33228,-0.01289 0.34572,-0.01289 0.33176,-0.01289 0.34572,-0.01289 0.33228,-0.02637 0.33227,-0.02577 0.33177,-0.02627 0.30593,-0.03876 0.31883,-0.03926 0.2925,-0.03866 0.29197,-0.05215 0.27904,-0.05215 0.27906,-0.06453 0.27906,-0.05215 0.25269,-0.06503 0.25218,-0.07792 0.25219,-0.07792 0.25269,-0.09091 0.26561,-0.09081 0.26614,-0.104304 0.26562,-0.116672 0.27906,-0.130058 0.26561,-0.143034 0.27905,-0.155882 0.26562,-0.168818 0.26614,-0.182225 0.25218,-0.181716 0.25269,-0.208048 0.23874,-0.208039 0.22635,-0.220965 0.22531,-0.220946 0.19947,-0.233862 0.19947,-0.24676 0.18603,-0.246769 0.17261,-0.260175 0.1731,-0.273093 0.13281,-0.246749 0.11938,-0.259686 0.1328,-0.260166 0.11989,-0.28602 0.11938,-0.285489 0.10645,-0.312303 0.11938,-0.32472 0.10645,-0.337627 0.093,-0.351034 0.10646,-0.36393 0.0796,-0.36398 0.093,-0.389744 0.0796,-0.376867 0.0796,-0.402651 0.0667,-0.390293 0.0532,-0.402651 0.0532,-0.403181 0.0532,-0.389264 0.0398,-0.403181 0.0398,-0.389764 0.0264,-0.376837 0.0269,-0.389784 0.0134,-0.36393 0.0129,-0.376857 0.0134,-0.36394 v -0.715004 l -0.0134,-0.36395 -0.0129,-0.363431 -0.0134,-0.376867 -0.0269,-0.36393 -0.0264,-0.376857 -0.0398,-0.376877 -0.0398,-0.390264 -0.0532,-0.389744 -0.0532,-0.376857 -0.0532,-0.389764 -0.0667,-0.389754 -0.0796,-0.376857 -0.0796,-0.376867 -0.093,-0.36396 -0.0796,-0.351034 -0.10646,-0.350534 -0.093,-0.338116 -0.10645,-0.32473 -0.11938,-0.298896 -0.10645,-0.298907 -0.11938,-0.273092 -0.11989,-0.273093 -0.1328,-0.259656 -0.11938,-0.233872 -0.13281,-0.233833 -0.1731,-0.260195 -0.17261,-0.259667 -0.18603,-0.234391 -0.19947,-0.233333 -0.19947,-0.234372 -0.22531,-0.207509 -0.22635,-0.220976 -0.23874,-0.195142 -0.25269,-0.195111 -0.25218,-0.181716 -0.26614,-0.181725 -0.26562,-0.155912 -0.27905,-0.156421 -0.26561,-0.142995 -0.27906,-0.129568 -0.26562,-0.117201 -0.26614,-0.103764 -0.26561,-0.104274 -0.25269,-0.07792 -0.25219,-0.07802 -0.25218,-0.07792 -0.25269,-0.05215 -0.27906,-0.06503 -0.27906,-0.06503 -0.27904,-0.05165 -0.29197,-0.03926 -0.31936,-0.03876 -0.33228,-0.03926 -0.35864,-0.03876 -0.38499,-0.02627 -0.41238,-0.02577 -0.43821,-0.02577 -0.45165,-0.01289 -0.43874,-0.01289 -0.42529,-0.02637 h -0.39844 l -0.31883,-0.01289 -0.2527,-0.01289 h -0.31884 z m 25.11269,0 V 45.57655 H 108.47917 V 41.482769 H 94.727036 v -7.017241 h 13.154244 v -4.09378 H 94.727036 v -7.01777 h 13.752134 v -4.093261 z m -19.73162,4.09379 h 2.98949 0.33228 l 0.23926,0.01289 h 0.54466 l 0.26563,0.01289 h 0.26613 l 0.23926,0.01289 0.22583,0.01289 0.22582,0.01289 0.22583,0.01339 0.22582,0.02577 0.18604,0.01289 0.19947,0.01289 0.19895,0.02637 0.21291,0.02577 0.22583,0.03866 0.22582,0.05215 0.23927,0.05165 0.23926,0.07852 0.23926,0.07792 0.23874,0.09091 0.22583,0.117171 0.22582,0.116671 0.22635,0.142995 0.19895,0.143015 0.19947,0.168798 0.1726,0.182245 0.17259,0.194612 0.15969,0.220966 0.11938,0.182215 0.11988,0.207549 0.10646,0.220935 0.10594,0.247269 0.10645,0.246759 0.093,0.28602 0.093,0.285989 0.093,0.311813 0.0796,0.324711 0.0667,0.351033 0.0796,0.350534 0.0532,0.351033 0.0667,0.36397 0.0398,0.376857 0.0398,0.376828 0.0398,0.36397 0.0269,0.376857 0.0264,0.36393 0.0134,0.36396 0.0129,0.351044 0.0134,0.350533 v 0.714984 l -0.0134,0.350514 -0.0129,0.36397 -0.0134,0.376857 -0.0264,0.36394 -0.0269,0.389744 -0.0398,0.376868 -0.0398,0.390283 -0.0398,0.376338 -0.0667,0.390283 -0.0532,0.376837 -0.0796,0.363421 -0.0667,0.36397 -0.0796,0.338147 -0.093,0.338126 -0.093,0.311823 -0.093,0.28547 -0.10645,0.286 -0.10594,0.247258 -0.10646,0.24676 -0.11988,0.208058 -0.11938,0.208039 -0.15969,0.233862 -0.17259,0.20755 -0.1726,0.182204 -0.19947,0.181716 -0.19895,0.155931 -0.22635,0.142985 -0.22582,0.130108 -0.22583,0.117171 -0.23874,0.103764 -0.23926,0.09091 -0.23926,0.06503 -0.23927,0.06503 -0.22582,0.05215 -0.22583,0.03876 -0.21291,0.02637 -0.19895,0.02577 -0.19947,0.01289 -0.18604,0.02637 -0.22582,0.01289 -0.22583,0.01289 -0.22582,0.01289 -0.22583,0.01289 -0.23926,0.01339 h -0.26613 l -0.26563,0.01289 h -0.54466 l -0.23926,0.01289 h -3.32177 z m 12.40752,22.481699 -0.14315,0.06503 -0.39894,0.169318 -0.39842,0.142505 -0.42531,0.142985 -0.42529,0.130087 -0.45165,0.117171 -0.46509,0.103785 -0.46509,0.09091 -0.46509,0.09141 -0.47852,0.07792 -0.47801,0.06503 -0.47852,0.06453 -0.478,0.05215 -0.47854,0.03926 -0.46509,0.03876 -0.45164,0.02577 -0.45165,0.02637 -0.43874,0.01289 -0.42477,0.01289 -0.22635,0.007 c -4.3956,5.213833 -11.06455,8.537576 -18.57613,8.537576 -7.50255,0 -14.16384,-3.315941 -18.559075,-8.518995 h -7.672399 c 5.274089,8.86802 15.062824,14.846526 26.231474,14.846526 11.78573,0 22.03749,-6.654089 27.06399,-16.341057 z"
     id="path3987" />
</svg>
