<?xml version="1.0" encoding="UTF-8" standalone="no"?>
<svg
   xmlns:dc="http://purl.org/dc/elements/1.1/"
   xmlns:cc="http://creativecommons.org/ns#"
   xmlns:rdf="http://www.w3.org/1999/02/22-rdf-syntax-ns#"
   xmlns:svg="http://www.w3.org/2000/svg"
   xmlns="http://www.w3.org/2000/svg"
   id="svg4"
   version="1.1"
   viewBox="0 0 210 297"
   width="210mm"
   height="297mm">
  <defs
     id="defs8" />
  <metadata
     id="metadata2">
    <rdf:RDF>
      <cc:Work
         rdf:about="">
        <dc:format>image/svg+xml</dc:format>
        <dc:type
           rdf:resource="http://purl.org/dc/dcmitype/StillImage" />
        <dc:title></dc:title>
      </cc:Work>
    </rdf:RDF>
  </metadata>
  <rect
     y="81.793175"
     x="-170.9411"
     height="304.79114"
     width="499.15717"
     id="rect3681"
     style="color:#000000;display:inline;overflow:visible;visibility:visible;opacity:1;fill:#008aff;fill-opacity:1;fill-rule:nonzero;stroke:none;stroke-width:1.5875001;stroke-linecap:square;stroke-linejoin:round;stroke-miterlimit:4;stroke-dasharray:none;stroke-dashoffset:0;stroke-opacity:1;marker:none;enable-background:accumulate" />
  <rect
     ry="9.929904"
     y="155.98827"
     x="-121.91299"
     height="68.527084"
     width="395.61307"
     id="rect3823"
     style="color:#000000;display:inline;overflow:visible;visibility:visible;opacity:1;fill:#ffffff;fill-opacity:1;fill-rule:nonzero;stroke:#ffffff;stroke-width:1.58749998;stroke-linecap:square;stroke-linejoin:round;stroke-miterlimit:4;stroke-dasharray:none;stroke-dashoffset:0;stroke-opacity:1;marker:none;enable-background:accumulate" />
  <text
     xml:space="preserve"
     style="color:#000000;font-style:normal;font-variant:normal;font-weight:bold;font-stretch:normal;font-size:34.54798126px;line-height:46.409729px;font-family:Arial;-inkscape-font-specification:'Arial Bold';text-align:start;writing-mode:lr-tb;text-anchor:start;display:inline;overflow:visible;visibility:visible;opacity:1;fill:#333333;fill-opacity:1;fill-rule:nonzero;stroke:none;stroke-width:1.58749998;stroke-linecap:square;stroke-linejoin:round;stroke-miterlimit:4;stroke-dasharray:none;stroke-dashoffset:0;stroke-opacity:1;marker:none;enable-background:accumulate;"
     x="20.012962"
     y="200.64621"
     id="text3793"><tspan
       id="tspan3791"
       x="20.012962"
       y="200.64621"
       style="fill:#333333;stroke:none;stroke-width:1.58749998;">Logg inn</tspan><tspan
       id="tspan3861"
       x="20.012962"
       y="247.05594"
       style="fill:#333333;stroke:none;stroke-width:1.58749998;" /></text>
  <g
     transform="translate(0,83.68856)"
     id="g3819">
    <rect
       ry="9.929904"
       y="72.299706"
       x="-121.91299"
       height="68.527084"
       width="130.70416"
       id="rect3795"
       style="color:#000000;display:inline;overflow:visible;visibility:visible;opacity:1;fill:#ffffff;fill-opacity:1;fill-rule:nonzero;stroke:#ffffff;stroke-width:1.58749998;stroke-linecap:square;stroke-linejoin:round;stroke-miterlimit:4;stroke-dasharray:none;stroke-dashoffset:0;stroke-opacity:1;marker:none;enable-background:accumulate" />
    <g
       style="stroke-width:1.69019115"
       id="g3817"
       transform="matrix(0.21094315,0,0,-0.20652153,-109.49489,135.14383)">
      <g
         style="stroke-width:1.69019115"
         id="g3815"
         transform="scale(0.1)">
        <path
           d="m 3770.14,1383.9 c 0,-712.115 -577.28,-1289.4039 -1289.4,-1289.4039 -712.12,0 -1289.41,577.2889 -1289.41,1289.4039 0,712.12 577.29,1289.41 1289.41,1289.41 712.12,0 1289.4,-577.29 1289.4,-1289.41 z"
           style="fill:none;stroke:#be1527;stroke-width:303.42648315;stroke-linecap:butt;stroke-linejoin:miter;stroke-miterlimit:10;stroke-dasharray:none;stroke-opacity:1"
           id="path3797" />
        <path
           d="m 2693.01,1837.43 c 0,-117.23 -95.04,-212.28 -212.27,-212.28 -117.24,0 -212.28,95.05 -212.28,212.28 0,117.23 95.04,212.28 212.28,212.28 117.23,0 212.27,-95.05 212.27,-212.28"
           style="fill:#be1527;fill-opacity:1;fill-rule:evenodd;stroke:none;stroke-width:1.69019115"
           id="path3799" />
        <path
           d="m 2268.46,745.813 h 425.18 L 2523.57,2021.36 h -85.03"
           style="fill:#be1527;fill-opacity:1;fill-rule:evenodd;stroke:none;stroke-width:1.69019115"
           id="path3801" />
        <path
           d="m 907.875,660.777 h 1133.82 v 1445.62 H 907.875 Z"
           style="fill:#ffffff;fill-opacity:1;fill-rule:evenodd;stroke:none;stroke-width:1.69019115"
           id="path3803" />
        <path
           d="m 3265.59,2106.4 h 68.66 l 18.9,-0.63 18.9,-0.63 h 20.15 l 20.79,-1.26 21.42,-0.63 21.41,-1.26 22.05,-1.89 22.68,-1.89 22.67,-1.89 22.68,-2.52 22.67,-3.15 22.68,-3.15 22.05,-3.78 22.04,-4.41 22.05,-4.41 21.41,-5.04 20.16,-5.67 20.16,-5.67 18.9,-6.93 18.89,-6.92 17.64,-6.93 17.01,-8.19 15.74,-8.19 15.75,-8.82 14.49,-9.45 13.86,-10.07 12.6,-10.72 12.59,-11.33 11.97,-12.6 11.34,-12.6 10.71,-13.86 10.08,-15.11 10.08,-15.12 9.44,-16.38 8.83,-17.64 8.18,-18.26 8.19,-18.9 6.93,-19.53 6.93,-20.15 6.3,-20.79 5.67,-21.42 5.67,-22.04 4.41,-22.05 4.41,-22.68 3.77,-22.67 3.15,-22.68 3.15,-22.67 2.52,-23.31 1.89,-22.68 1.89,-22.67 1.26,-22.05 0.63,-22.68 1.26,-22.04 v -22.05 l 0.63,-22.05 v -42.83 l -0.63,-21.42 v -20.78 l -0.63,-21.42 -1.26,-21.42 -0.63,-22.04 -1.89,-22.05 -1.89,-22.04 -1.89,-22.68 -2.52,-22.68 -2.52,-22.68 -3.14,-22.67 -3.79,-23.31 -4.4,-22.68 -4.41,-22.04 -5.04,-22.68 -5.04,-21.41 -6.3,-21.42 -6.3,-21.419 -6.3,-20.156 -7.56,-19.527 -7.56,-18.895 -8.18,-18.27 -8.2,-17.636 -9.44,-17.008 -9.45,-15.746 -9.45,-15.117 -10.71,-14.489 -10.71,-13.226 -10.7,-12.598 -11.97,-12.598 -11.97,-11.339 -13.86,-10.707 -14.49,-10.711 -15.75,-10.078 -15.74,-9.45 -17.01,-8.816 -17.64,-8.188 -18.89,-8.191 -18.9,-6.926 -20.16,-6.929 -20.16,-6.301 -21.41,-5.668 -22.05,-5.039 -22.04,-4.41 -22.05,-4.411 -22.68,-3.777 -22.67,-3.152 -22.68,-3.149 -22.67,-2.519 -22.68,-1.891 -22.05,-1.887 -21.41,-1.261 -21.42,-1.258 -20.79,-0.633 -20.15,-0.629 -18.9,-0.629 -18.9,-0.629 H 2920.41 V 2106.4 h 323.77"
           style="fill:#ffffff;fill-opacity:1;fill-rule:evenodd;stroke:none;stroke-width:1.69019115"
           id="path3805" />
        <path
           d="M 0.820313,745.813 V 2021.36 H 907.875 V 1822.94 H 255.93 V 1482.8 H 879.531 V 1284.38 H 255.93 V 745.813"
           style="fill:#be1527;fill-opacity:1;fill-rule:evenodd;stroke:none;stroke-width:1.69019115"
           id="path3807" />
        <path
           d="M 1134.64,745.813 V 2021.36 H 2041.7 V 1822.94 H 1389.75 V 1482.8 h 623.6 v -198.42 h -623.6 V 944.23 H 2041.7 V 745.813"
           style="fill:#be1527;fill-opacity:1;fill-rule:evenodd;stroke:none;stroke-width:1.69019115"
           id="path3809" />
        <path
           d="M 4110.92,745.813 V 2021.36 h 907.05 V 1822.94 H 4366.03 V 1482.8 h 623.6 v -198.42 h -623.6 V 944.23 h 651.94 V 745.813"
           style="fill:#be1527;fill-opacity:1;fill-rule:evenodd;stroke:none;stroke-width:1.69019115"
           id="path3811" />
        <path
           d="m 3600.7,1997.42 11.97,-2.52 11.97,-3.77 11.96,-3.79 11.97,-3.77 12.6,-5.04 12.6,-5.04 12.6,-5.67 13.22,-6.3 12.6,-6.93 13.23,-7.56 12.6,-7.56 12.6,-8.81 11.96,-8.82 11.97,-9.45 11.34,-9.45 10.71,-10.71 10.7,-10.08 9.45,-11.34 9.45,-11.33 8.82,-11.34 8.19,-12.6 8.19,-12.6 6.3,-11.34 5.67,-11.33 6.3,-12.6 5.67,-13.23 5.66,-13.23 5.04,-14.49 5.67,-14.49 5.04,-15.74 4.41,-16.38 5.04,-17 3.78,-17.01 4.41,-17.64 3.78,-18.27 3.78,-18.26 3.15,-18.9 2.52,-18.9 2.52,-18.27 2.52,-18.89 1.89,-18.9 1.89,-18.27 1.26,-18.26 1.26,-17.64 0.63,-18.27 0.62,-17.63 0.63,-17.64 v -34.65 l -0.63,-17.64 -0.62,-18.26 -0.63,-17.64 -1.26,-18.9 -1.26,-18.26 -1.89,-18.9 -1.89,-19.53 -2.52,-18.89 -2.52,-19.53 -2.52,-19.53 -3.15,-18.9 -3.78,-19.52 -3.78,-18.27 -4.41,-18.9 -3.78,-17.63 -5.04,-17.64 -4.41,-17.01 -5.04,-16.37 -5.67,-15.75 -5.04,-15.12 -5.66,-13.856 -5.67,-13.859 -6.3,-12.598 -5.67,-12.598 -6.3,-11.968 -8.19,-13.227 -8.19,-12.601 -8.82,-11.965 -9.45,-11.969 -9.45,-11.34 -10.7,-10.707 -10.71,-10.707 -11.34,-10.082 -11.97,-10.078 -11.96,-8.817 -12.6,-8.82 -12.6,-8.187 -13.23,-7.559 -12.6,-6.93 -13.22,-6.297 -12.6,-5.671 -12.6,-5.039 -12.6,-4.411 -11.97,-4.406 -11.96,-3.781 -11.97,-3.777 -11.97,-3.153 -13.23,-2.519 -13.23,-3.149 -13.22,-2.519 -13.86,-2.52 -13.86,-1.89 -15.12,-1.887 -14.48,-1.891 -15.75,-1.262 -15.75,-1.257 -15.75,-1.262 -16.38,-0.629 -15.74,-0.629 -16.38,-0.633 -15.75,-0.629 h -16.38 l -15.74,-0.628 H 2920.41 V 2021.36 h 396.83 V 1822.94 H 3175.52 V 944.23 h 157.47 l 11.34,0.629 h 25.83 l 12.59,0.633 h 12.6 l 11.34,0.629 10.71,0.629 10.71,0.629 10.71,0.633 10.7,0.629 8.82,1.257 9.45,0.633 9.45,1.258 10.08,1.262 10.7,1.887 10.71,2.519 11.34,3.152 11.34,3.149 11.34,4.41 11.34,5.039 10.7,5.668 10.71,6.301 10.71,6.926 9.45,7.562 9.45,8.816 8.19,8.82 8.18,10.08 7.56,11.33 5.67,10.08 5.67,10.08 5.04,11.97 5.04,11.97 5.04,13.86 4.41,13.85 4.41,15.12 4.41,16.38 3.78,16.38 3.15,17.64 3.78,17.63 2.52,18.27 3.15,18.9 1.89,18.26 1.89,18.9 1.88,18.27 1.27,18.89 1.25,17.64 0.64,18.27 0.62,17.64 0.63,17 v 34.65 l -0.63,17 -0.62,17.01 -0.64,17.64 -1.25,17.63 -1.27,18.27 -1.88,17.64 -1.89,18.27 -1.89,18.27 -3.15,17.63 -2.52,17.01 -3.78,17 -3.15,17.01 -3.78,15.75 -4.41,15.12 -4.41,13.85 -4.41,13.86 -5.04,11.97 -5.04,11.97 -5.04,10.71 -5.67,10.08 -5.67,8.82 -7.56,10.7 -8.18,9.45 -8.19,8.82 -9.45,8.19 -9.45,6.93 -10.71,6.93 -10.71,5.67 -10.7,5.67 -11.34,4.41 -11.34,3.77 -11.34,3.79 -11.34,2.51 -10.71,2.52 -10.7,1.89 -10.08,1.26 -9.45,1.26 -9.45,0.63 -8.82,0.63 -10.7,1.26 -10.71,0.63 -10.71,0.63 -10.71,0.63 -11.34,0.63 h -12.6 l -12.59,0.63 h -25.83 l -11.34,0.63 h -15.75 v 198.42 h 15.12 l 11.97,-0.63 15.12,-0.63 h 18.89 l 20.16,-1.26 20.79,-0.63 21.41,-0.63 20.79,-1.26 19.53,-1.26 18.27,-1.26 17,-1.89 15.75,-1.89 15.12,-1.89 13.86,-1.89 13.22,-2.52 13.23,-3.15"
           style="fill:#be1527;fill-opacity:1;fill-rule:evenodd;stroke:none;stroke-width:1.69019115"
           id="path3813" />
      </g>
    </g>
  </g>
  <rect
     style="color:#000000;display:inline;overflow:visible;visibility:visible;opacity:1;fill:#ffffff;fill-opacity:1;fill-rule:nonzero;stroke:#ffffff;stroke-width:1.58749998;stroke-linecap:square;stroke-linejoin:round;stroke-miterlimit:4;stroke-dasharray:none;stroke-dashoffset:0;stroke-opacity:1;marker:none;enable-background:accumulate"
     id="rect3863"
     width="401.90543"
     height="68.527084"
     x="-121.91299"
     y="242.30623"
     ry="9.929904" />
  <text
     id="text3869"
     y="270.60159"
     x="18.201246"
     style="color:#000000;font-style:normal;font-variant:normal;font-weight:bold;font-stretch:normal;font-size:19.27348137px;line-height:25.89086342px;font-family:Arial;-inkscape-font-specification:'Arial Bold';text-align:start;writing-mode:lr-tb;text-anchor:start;display:inline;overflow:visible;visibility:visible;opacity:1;fill:#333333;fill-opacity:1;fill-rule:nonzero;stroke:none;stroke-width:1.58749998;stroke-linecap:square;stroke-linejoin:round;stroke-miterlimit:4;stroke-dasharray:none;stroke-dashoffset:0;stroke-opacity:1;marker:none;enable-background:accumulate"
     xml:space="preserve"><tspan
       style="fill:#333333;stroke:none;stroke-width:1.58749998"
       y="270.60159"
       x="18.201246"
       id="tspan3865">Logg ut</tspan><tspan
       style="fill:#333333;stroke:none;stroke-width:1.58749998"
       y="296.49246"
       x="18.201246"
       id="tspan3867">Eirik Hanssen</tspan></text>
  <path
     id="path3982"
     d="m -59.682969,246.77411 c -11.173513,0 -20.966279,5.99104 -26.238708,14.87506 h 7.668266 c 4.395118,-5.21626 11.061718,-8.54107 18.570442,-8.54107 7.51726,0 14.189948,3.33317 18.585429,8.55967 l 0.217043,0.007 h 0.42478 l 0.438732,0.0263 0.451652,0.0129 0.451652,0.0258 0.465087,0.0393 0.478525,0.0388 0.478007,0.0393 0.478523,0.0517 0.478007,0.0651 0.478525,0.0651 0.465087,0.078 0.465087,0.0915 0.465088,0.091 0.451651,0.10388 0.4253,0.11729 0.425296,0.11678 0.398426,0.14314 0.398941,0.14317 0.04909,0.0191 C -37.774432,253.3479 -47.973657,246.7739 -59.682972,246.7739 Z m 5.19e-4,16.04605 c -2.4731,0 -4.477764,1.96266 -4.477764,4.3837 0,1.73784 1.035545,3.23524 2.533179,3.94446 l -2.533179,18.59992 h 8.968962 l -2.533697,-18.60611 c 1.490559,-0.71173 2.520259,-2.20544 2.520259,-3.93827 0,-2.42104 -2.004875,-4.3837 -4.47776,-4.3837 z m -52.31205,0.5855 v 26.34258 h 5.38158 v -11.12232 h 13.154235 v -4.09794 h -13.154235 v -7.0249 h 13.752133 v -4.09742 z m 23.916882,0 v 26.34258 h 19.134232 v -4.09795 h -13.752647 v -7.02437 h 13.154234 v -4.09794 h -13.154234 v -7.0249 h 13.752647 v -4.09742 z m 37.670052,0 v 26.34308 h 9.27437 l 0.331761,-0.0134 h 0.345718 l 0.332277,-0.0129 0.345718,-0.0129 0.331761,-0.0129 0.345715,-0.0129 0.33228,-0.0264 0.332279,-0.0258 0.331764,-0.0263 0.305924,-0.0388 0.318845,-0.0393 0.292486,-0.0387 0.291973,-0.0522 0.279053,-0.0522 0.279051,-0.0646 0.279053,-0.0522 0.252699,-0.0651 0.252179,-0.078 0.252183,-0.078 0.252698,-0.091 0.265615,-0.0909 0.266134,-0.1044 0.265618,-0.11679 0.279053,-0.1302 0.265615,-0.14317 0.279054,-0.15605 0.265618,-0.16899 0.266133,-0.1824 0.25218,-0.1819 0.252698,-0.20826 0.238744,-0.20825 0.226343,-0.22119 0.225309,-0.22117 0.199472,-0.2341 0.199472,-0.24701 0.186034,-0.24702 0.172601,-0.26045 0.173114,-0.27337 0.13281,-0.24699 0.119372,-0.25995 0.132808,-0.26043 0.119891,-0.28631 0.119372,-0.28578 0.106452,-0.31263 0.119372,-0.32504 0.106455,-0.33798 0.09302,-0.35139 0.106453,-0.3643 0.07958,-0.36434 0.09302,-0.39015 0.07958,-0.37724 0.07958,-0.40307 0.06666,-0.39068 0.05323,-0.40307 0.05323,-0.40359 0.05323,-0.38966 0.03979,-0.40359 0.03979,-0.39016 0.02635,-0.37721 0.02687,-0.39018 0.01344,-0.36431 0.01292,-0.37724 0.01344,-0.36431 v -0.71572 l -0.01344,-0.36433 -0.01292,-0.3638 -0.01344,-0.37725 -0.02687,-0.3643 -0.02635,-0.37724 -0.03979,-0.37725 -0.03979,-0.39066 -0.05323,-0.39015 -0.05323,-0.37724 -0.05323,-0.39016 -0.06666,-0.39015 -0.07958,-0.37724 -0.07958,-0.37725 -0.09302,-0.36433 -0.07958,-0.35139 -0.106453,-0.35089 -0.09302,-0.33846 -0.106455,-0.32506 -0.119372,-0.2992 -0.106452,-0.29921 -0.119372,-0.27337 -0.119891,-0.27337 -0.132808,-0.25992 -0.119372,-0.23411 -0.13281,-0.23407 -0.173114,-0.26046 -0.172601,-0.25993 -0.186034,-0.23463 -0.199472,-0.23357 -0.199472,-0.23461 -0.225309,-0.20772 -0.226343,-0.2212 -0.238744,-0.19534 -0.252698,-0.19531 -0.25218,-0.1819 -0.266133,-0.18191 -0.265618,-0.15607 -0.279054,-0.15658 -0.265615,-0.14314 -0.279053,-0.1297 -0.265618,-0.11732 -0.266134,-0.10387 -0.265615,-0.10438 -0.252698,-0.078 -0.252183,-0.0781 -0.252179,-0.078 -0.252699,-0.0522 -0.279053,-0.0651 -0.279051,-0.0651 -0.279053,-0.0517 -0.291973,-0.0393 -0.31936,-0.0388 -0.33228,-0.0393 -0.358635,-0.0388 -0.384987,-0.0263 -0.412379,-0.0258 -0.438217,-0.0258 -0.451651,-0.0129 -0.438732,-0.0129 -0.425297,-0.0264 h -0.398425 l -0.318844,-0.0129 -0.252699,-0.0129 h -0.318844 z m 25.112679,0 v 26.34258 h 19.1337157 v -4.09795 H -19.913303 v -7.02437 h 13.1542356 v -4.09794 H -19.913303 v -7.0249 h 13.7521317 v -4.09742 z m -19.731613,4.09795 h 2.989482 0.33228 l 0.239263,0.0129 h 0.544668 l 0.265618,0.0129 h 0.266134 l 0.23926,0.0129 0.225827,0.0129 0.225827,0.0129 0.225825,0.0134 0.225827,0.0258 0.186034,0.0129 0.199472,0.0129 0.198953,0.0264 0.212908,0.0258 0.225827,0.0387 0.225824,0.0522 0.239263,0.0517 0.23926,0.0786 0.239263,0.078 0.238744,0.091 0.225827,0.11729 0.225827,0.11679 0.226341,0.14314 0.198956,0.14316 0.199469,0.16897 0.172601,0.18243 0.172599,0.19481 0.159681,0.22119 0.119372,0.1824 0.119888,0.20776 0.106455,0.22116 0.105937,0.24752 0.106452,0.24701 0.09302,0.28631 0.09302,0.28628 0.09302,0.31213 0.07958,0.32504 0.06666,0.35139 0.07958,0.35089 0.05323,0.35139 0.06666,0.36434 0.03979,0.37724 0.03979,0.37722 0.03979,0.36433 0.02687,0.37724 0.02636,0.3643 0.01344,0.36434 0.01292,0.35139 0.01344,0.35089 v 0.71572 l -0.01344,0.35087 -0.01292,0.36433 -0.01344,0.37724 -0.02636,0.36431 -0.02687,0.39015 -0.03979,0.37724 -0.03979,0.39069 -0.03979,0.37671 -0.06666,0.39069 -0.05323,0.37721 -0.07958,0.3638 -0.06666,0.36433 -0.07958,0.33849 -0.09302,0.33848 -0.09302,0.31213 -0.09302,0.28577 -0.106452,0.28628 -0.105937,0.24752 -0.106455,0.24701 -0.119888,0.20826 -0.119372,0.20825 -0.159681,0.23411 -0.172599,0.20775 -0.172601,0.1824 -0.199469,0.1819 -0.198956,0.15608 -0.226341,0.14314 -0.225827,0.13023 -0.225827,0.11729 -0.238744,0.10387 -0.239263,0.091 -0.23926,0.0651 -0.239263,0.0651 -0.225824,0.0522 -0.225827,0.0388 -0.212908,0.0264 -0.198953,0.0258 -0.199472,0.0129 -0.186034,0.0264 -0.225827,0.0129 -0.225825,0.0129 -0.225827,0.0129 -0.225827,0.0129 -0.23926,0.0134 h -0.266134 l -0.265618,0.0129 h -0.544668 l -0.239263,0.0129 H -45.0265 Z m 12.407514,22.50455 -0.143145,0.0651 -0.398941,0.16949 -0.398426,0.14264 -0.425296,0.14314 -0.4253,0.13022 -0.451651,0.11729 -0.465088,0.10388 -0.465087,0.091 -0.465087,0.0915 -0.478525,0.078 -0.478007,0.0651 -0.478523,0.0646 -0.478007,0.0522 -0.478525,0.0393 -0.465087,0.0388 -0.451652,0.0258 -0.451652,0.0264 -0.438732,0.0129 -0.42478,0.0129 -0.226344,0.007 c -4.395599,5.21914 -11.064554,8.54625 -18.576128,8.54625 -7.502551,0 -14.163841,-3.3193 -18.559073,-8.52765 h -7.672398 c 5.274082,8.87703 15.062824,14.86162 26.231471,14.86162 11.785732,0 22.037495,-6.66086 27.063983,-16.35766 z"
     style="color:#000000;font-style:normal;font-variant:normal;font-weight:normal;font-stretch:normal;font-size:medium;line-height:normal;font-family:sans-serif;font-variant-ligatures:normal;font-variant-position:normal;font-variant-caps:normal;font-variant-numeric:normal;font-variant-alternates:normal;font-feature-settings:normal;text-indent:0;text-align:start;text-decoration:none;text-decoration-line:none;text-decoration-style:solid;text-decoration-color:#000000;letter-spacing:normal;word-spacing:normal;text-transform:none;writing-mode:lr-tb;direction:ltr;text-orientation:mixed;dominant-baseline:auto;baseline-shift:baseline;text-anchor:start;white-space:normal;shape-padding:0;clip-rule:nonzero;display:inline;overflow:visible;visibility:visible;opacity:1;isolation:auto;mix-blend-mode:normal;color-interpolation:sRGB;color-interpolation-filters:linearRGB;solid-color:#000000;solid-opacity:1;vector-effect:none;fill:#be1527;fill-opacity:1;fill-rule:nonzero;stroke:none;stroke-width:6.33313704;stroke-linecap:butt;stroke-linejoin:miter;stroke-miterlimit:10;stroke-dasharray:none;stroke-dashoffset:0;stroke-opacity:1;color-rendering:auto;image-rendering:auto;shape-rendering:auto;text-rendering:auto;enable-background:accumulate" />
  <text
     id="text3903"
     y="268.74557"
     x="252.41405"
     style="color:#000000;font-style:normal;font-variant:normal;font-weight:bold;font-stretch:normal;font-size:36.66816711px;line-height:49.25785828px;font-family:Arial;-inkscape-font-specification:'Arial Bold';text-align:start;writing-mode:lr-tb;text-anchor:start;display:inline;overflow:visible;visibility:visible;opacity:1;fill:#333333;fill-opacity:1;fill-rule:nonzero;stroke:none;stroke-width:1.58749986;stroke-linecap:square;stroke-linejoin:round;stroke-miterlimit:4;stroke-dasharray:none;stroke-dashoffset:0;stroke-opacity:1;marker:none;enable-background:accumulate"
     xml:space="preserve"><tspan
       style="stroke-width:1.58749986"
       y="268.74557"
       x="252.41405"
       id="tspan3901">x</tspan></text>
  <path
     style="color:#000000;font-style:normal;font-variant:normal;font-weight:normal;font-stretch:normal;font-size:medium;line-height:normal;font-family:sans-serif;font-variant-ligatures:normal;font-variant-position:normal;font-variant-caps:normal;font-variant-numeric:normal;font-variant-alternates:normal;font-feature-settings:normal;text-indent:0;text-align:start;text-decoration:none;text-decoration-line:none;text-decoration-style:solid;text-decoration-color:#000000;letter-spacing:normal;word-spacing:normal;text-transform:none;writing-mode:lr-tb;direction:ltr;text-orientation:mixed;dominant-baseline:auto;baseline-shift:baseline;text-anchor:start;white-space:normal;shape-padding:0;clip-rule:nonzero;display:inline;overflow:visible;visibility:visible;opacity:1;isolation:auto;mix-blend-mode:normal;color-interpolation:sRGB;color-interpolation-filters:linearRGB;solid-color:#000000;solid-opacity:1;vector-effect:none;fill:#be1527;fill-opacity:1;fill-rule:nonzero;stroke:none;stroke-width:6.33313704;stroke-linecap:butt;stroke-linejoin:miter;stroke-miterlimit:10;stroke-dasharray:none;stroke-dashoffset:0;stroke-opacity:1;color-rendering:auto;image-rendering:auto;shape-rendering:auto;text-rendering:auto;enable-background:accumulate"
     d="m -456.56762,246.77411 c -11.17352,0 -20.96628,5.99104 -26.23871,14.87506 h 7.66826 c 4.39512,-5.21626 11.06172,-8.54107 18.57045,-8.54107 7.51726,0 14.18994,3.33317 18.58542,8.55967 l 0.21705,0.007 h 0.42478 l 0.43873,0.0263 0.45165,0.0129 0.45165,0.0258 0.46509,0.0393 0.47853,0.0388 0.478,0.0393 0.47853,0.0517 0.478,0.0651 0.47853,0.0651 0.46508,0.078 0.46509,0.0915 0.46509,0.091 0.45165,0.10388 0.4253,0.11729 0.4253,0.11678 0.39842,0.14314 0.39894,0.14317 0.0491,0.0191 c -5.06139,-9.59503 -15.26061,-16.16903 -26.96993,-16.16903 z m 5.1e-4,16.04605 c -2.4731,0 -4.47776,1.96266 -4.47776,4.3837 0,1.73784 1.03555,3.23524 2.53318,3.94446 l -2.53318,18.59992 h 8.96896 l -2.53369,-18.60611 c 1.49055,-0.71173 2.52025,-2.20544 2.52025,-3.93827 0,-2.42104 -2.00487,-4.3837 -4.47776,-4.3837 z m -52.31205,0.5855 v 26.34258 h 5.38158 v -11.12232 h 13.15424 v -4.09794 h -13.15424 v -7.0249 h 13.75214 v -4.09742 z m 23.91689,0 v 26.34258 h 19.13423 v -4.09795 h -13.75265 v -7.02437 h 13.15424 v -4.09794 h -13.15424 v -7.0249 h 13.75265 v -4.09742 z m 37.67005,0 v 26.34308 h 9.27437 l 0.33176,-0.0134 h 0.34572 l 0.33227,-0.0129 0.34572,-0.0129 0.33176,-0.0129 0.34572,-0.0129 0.33228,-0.0264 0.33228,-0.0258 0.33176,-0.0263 0.30593,-0.0388 0.31884,-0.0393 0.29249,-0.0387 0.29197,-0.0522 0.27905,-0.0522 0.27905,-0.0646 0.27906,-0.0522 0.2527,-0.0651 0.25217,-0.078 0.25219,-0.078 0.2527,-0.091 0.26561,-0.0909 0.26613,-0.1044 0.26562,-0.11679 0.27906,-0.1302 0.26561,-0.14317 0.27905,-0.15605 0.26562,-0.16899 0.26614,-0.1824 0.25218,-0.1819 0.25269,-0.20826 0.23875,-0.20825 0.22634,-0.22119 0.22531,-0.22117 0.19947,-0.2341 0.19947,-0.24701 0.18604,-0.24702 0.1726,-0.26045 0.17311,-0.27337 0.13281,-0.24699 0.11937,-0.25995 0.13281,-0.26043 0.11989,-0.28631 0.11938,-0.28578 0.10645,-0.31263 0.11937,-0.32504 0.10645,-0.33798 0.093,-0.35139 0.10646,-0.3643 0.0796,-0.36434 0.093,-0.39015 0.0796,-0.37724 0.0796,-0.40307 0.0667,-0.39068 0.0532,-0.40307 0.0532,-0.40359 0.0532,-0.38966 0.0398,-0.40359 0.0398,-0.39016 0.0264,-0.37721 0.0269,-0.39018 0.0134,-0.36431 0.0129,-0.37724 0.0134,-0.36431 v -0.71572 l -0.0134,-0.36433 -0.0129,-0.3638 -0.0134,-0.37725 -0.0269,-0.3643 -0.0264,-0.37724 -0.0398,-0.37725 -0.0398,-0.39066 -0.0532,-0.39015 -0.0532,-0.37724 -0.0532,-0.39016 -0.0667,-0.39015 -0.0796,-0.37724 -0.0796,-0.37725 -0.093,-0.36433 -0.0796,-0.35139 -0.10646,-0.35089 -0.093,-0.33846 -0.10645,-0.32506 -0.11937,-0.2992 -0.10645,-0.29921 -0.11938,-0.27337 -0.11989,-0.27337 -0.13281,-0.25992 -0.11937,-0.23411 -0.13281,-0.23407 -0.17311,-0.26046 -0.1726,-0.25993 -0.18604,-0.23463 -0.19947,-0.23357 -0.19947,-0.23461 -0.22531,-0.20772 -0.22634,-0.2212 -0.23875,-0.19534 -0.25269,-0.19531 -0.25218,-0.1819 -0.26614,-0.18191 -0.26562,-0.15607 -0.27905,-0.15658 -0.26561,-0.14314 -0.27906,-0.1297 -0.26562,-0.11732 -0.26613,-0.10387 -0.26561,-0.10438 -0.2527,-0.078 -0.25219,-0.0781 -0.25217,-0.078 -0.2527,-0.0522 -0.27906,-0.0651 -0.27905,-0.0651 -0.27905,-0.0517 -0.29197,-0.0393 -0.31936,-0.0388 -0.33228,-0.0393 -0.35864,-0.0388 -0.38499,-0.0263 -0.41237,-0.0258 -0.43822,-0.0258 -0.45165,-0.0129 -0.43873,-0.0129 -0.4253,-0.0264 h -0.39843 l -0.31884,-0.0129 -0.2527,-0.0129 h -0.31884 z m 25.11268,0 v 26.34258 h 19.13371 v -4.09795 h -13.75213 v -7.02437 h 13.15424 v -4.09794 h -13.15424 v -7.0249 h 13.75213 v -4.09742 z m -19.73162,4.09795 h 2.98949 0.33228 l 0.23926,0.0129 h 0.54467 l 0.26562,0.0129 h 0.26613 l 0.23926,0.0129 0.22583,0.0129 0.22582,0.0129 0.22583,0.0134 0.22583,0.0258 0.18603,0.0129 0.19947,0.0129 0.19895,0.0264 0.21291,0.0258 0.22583,0.0387 0.22582,0.0522 0.23927,0.0517 0.23926,0.0786 0.23926,0.078 0.23874,0.091 0.22583,0.11729 0.22583,0.11679 0.22634,0.14314 0.19895,0.14316 0.19947,0.16897 0.1726,0.18243 0.1726,0.19481 0.15968,0.22119 0.11938,0.1824 0.11988,0.20776 0.10646,0.22116 0.10594,0.24752 0.10645,0.24701 0.093,0.28631 0.093,0.28628 0.093,0.31213 0.0796,0.32504 0.0667,0.35139 0.0796,0.35089 0.0532,0.35139 0.0667,0.36434 0.0398,0.37724 0.0398,0.37722 0.0398,0.36433 0.0269,0.37724 0.0264,0.3643 0.0134,0.36434 0.0129,0.35139 0.0134,0.35089 v 0.71572 l -0.0134,0.35087 -0.0129,0.36433 -0.0134,0.37724 -0.0264,0.36431 -0.0269,0.39015 -0.0398,0.37724 -0.0398,0.39069 -0.0398,0.37671 -0.0667,0.39069 -0.0532,0.37721 -0.0796,0.3638 -0.0667,0.36433 -0.0796,0.33849 -0.093,0.33848 -0.093,0.31213 -0.093,0.28577 -0.10645,0.28628 -0.10594,0.24752 -0.10646,0.24701 -0.11988,0.20826 -0.11938,0.20825 -0.15968,0.23411 -0.1726,0.20775 -0.1726,0.1824 -0.19947,0.1819 -0.19895,0.15608 -0.22634,0.14314 -0.22583,0.13023 -0.22583,0.11729 -0.23874,0.10387 -0.23926,0.091 -0.23926,0.0651 -0.23927,0.0651 -0.22582,0.0522 -0.22583,0.0388 -0.21291,0.0264 -0.19895,0.0258 -0.19947,0.0129 -0.18603,0.0264 -0.22583,0.0129 -0.22583,0.0129 -0.22582,0.0129 -0.22583,0.0129 -0.23926,0.0134 h -0.26613 l -0.26562,0.0129 h -0.54467 l -0.23926,0.0129 h -3.32177 z m 12.40752,22.50455 -0.14315,0.0651 -0.39894,0.16949 -0.39842,0.14264 -0.4253,0.14314 -0.4253,0.13022 -0.45165,0.11729 -0.46509,0.10388 -0.46509,0.091 -0.46508,0.0915 -0.47853,0.078 -0.478,0.0651 -0.47853,0.0646 -0.478,0.0522 -0.47853,0.0393 -0.46509,0.0388 -0.45165,0.0258 -0.45165,0.0264 -0.43873,0.0129 -0.42478,0.0129 -0.22635,0.007 c -4.3956,5.21914 -11.06455,8.54625 -18.57612,8.54625 -7.50256,0 -14.16385,-3.3193 -18.55908,-8.52765 h -7.6724 c 5.27409,8.87703 15.06283,14.86162 26.23148,14.86162 11.78573,0 22.03749,-6.66086 27.06398,-16.35766 z"
     id="path3987" />
  <text
     xml:space="preserve"
     style="color:#000000;font-style:normal;font-variant:normal;font-weight:bold;font-stretch:normal;font-size:36.66816711px;line-height:49.25785828px;font-family:Arial;-inkscape-font-specification:'Arial Bold';text-align:start;writing-mode:lr-tb;text-anchor:start;display:inline;overflow:visible;visibility:visible;opacity:1;fill:#333333;fill-opacity:1;fill-rule:nonzero;stroke:none;stroke-width:1.58749986;stroke-linecap:square;stroke-linejoin:round;stroke-miterlimit:4;stroke-dasharray:none;stroke-dashoffset:0;stroke-opacity:1;marker:none;enable-background:accumulate"
     x="-405.20425"
     y="425.36374"
     id="text4102"><tspan
       id="tspan4100"
       x="-405.20425"
       y="425.36374"
       style="stroke-width:1.58749986">x</tspan></text>
</svg>
